<svg width="50" height="50" viewBox="0 0 50 50" fill="none" xmlns="http://www.w3.org/2000/svg">
    <path
        d="M24.9998 22.7083C23.729 22.7083 22.7082 23.7292 22.7082 25C22.7082 26.2708 23.729 27.2917 24.9998 27.2917C26.2707 27.2917 27.2915 26.2708 27.2915 25C27.2915 23.7292 26.2707 22.7083 24.9998 22.7083ZM24.9998 4.16667C13.4998 4.16667 4.1665 13.5 4.1665 25C4.1665 36.5 13.4998 45.8333 24.9998 45.8333C36.4998 45.8333 45.8332 36.5 45.8332 25C45.8332 13.5 36.4998 4.16667 24.9998 4.16667ZM29.5623 29.5625L12.4998 37.5L20.4373 20.4375L37.4998 12.5L29.5623 29.5625Z"
        fill="#00095E" />
</svg>