<svg width="50" height="41" viewBox="0 0 50 41" fill="none" xmlns="http://www.w3.org/2000/svg">
    <path
        d="M15 20.4918C19.8359 20.4918 23.75 16.4815 23.75 11.5266C23.75 6.57177 19.8359 2.56146 15 2.56146C10.1641 2.56146 6.25 6.57177 6.25 11.5266C6.25 16.4815 10.1641 20.4918 15 20.4918ZM21 23.0533H20.3516C18.7266 23.8537 16.9219 24.334 15 24.334C13.0781 24.334 11.2812 23.8537 9.64844 23.0533H9C4.03125 23.0533 0 27.1836 0 32.2746V34.5799C0 36.7011 1.67969 38.4221 3.75 38.4221H26.25C28.3203 38.4221 30 36.7011 30 34.5799V32.2746C30 27.1836 25.9687 23.0533 21 23.0533ZM37.5 20.4918C41.6406 20.4918 45 17.0498 45 12.8074C45 8.56492 41.6406 5.12294 37.5 5.12294C33.3594 5.12294 30 8.56492 30 12.8074C30 17.0498 33.3594 20.4918 37.5 20.4918ZM41.25 23.0533H40.9531C39.8672 23.4375 38.7188 23.6936 37.5 23.6936C36.2812 23.6936 35.1328 23.4375 34.0469 23.0533H33.75C32.1562 23.0533 30.6875 23.5255 29.3984 24.286C31.3047 26.3912 32.5 29.1848 32.5 32.2746V35.3484C32.5 35.5245 32.4609 35.6925 32.4531 35.8606H46.25C48.3203 35.8606 50 34.1397 50 32.0184C50 27.0636 46.0859 23.0533 41.25 23.0533Z"
        fill="#00095E" />
</svg>