<svg width="50" height="50" viewBox="0 0 50 50" fill="none" xmlns="http://www.w3.org/2000/svg">
    <path
        d="M8.33317 37.5H12.4998V46.0021L23.1269 37.5H33.3332C35.6311 37.5 37.4998 35.6313 37.4998 33.3333V16.6667C37.4998 14.3688 35.6311 12.5 33.3332 12.5H8.33317C6.03525 12.5 4.1665 14.3688 4.1665 16.6667V33.3333C4.1665 35.6313 6.03525 37.5 8.33317 37.5Z"
        fill="#00095E" />
    <path
        d="M41.6667 4.16667H16.6667C14.3687 4.16667 12.5 6.03542 12.5 8.33334H37.5C39.7979 8.33334 41.6667 10.2021 41.6667 12.5V29.1667C43.9646 29.1667 45.8333 27.2979 45.8333 25V8.33334C45.8333 6.03542 43.9646 4.16667 41.6667 4.16667Z"
        fill="#00095E" />
</svg>