<svg width="50" height="50" viewBox="0 0 50 50" fill="none" xmlns="http://www.w3.org/2000/svg">
    <path fill-rule="evenodd" clip-rule="evenodd"
        d="M24.9998 43.75C35.355 43.75 43.7498 35.3552 43.7498 25C43.7498 14.6448 35.355 6.25 24.9998 6.25C14.6446 6.25 6.24984 14.6448 6.24984 25C6.24984 35.3552 14.6446 43.75 24.9998 43.75ZM24.9998 45.8333C36.5061 45.8333 45.8332 36.5063 45.8332 25C45.8332 13.4938 36.5061 4.16667 24.9998 4.16667C13.4936 4.16667 4.1665 13.4938 4.1665 25C4.1665 36.5063 13.4936 45.8333 24.9998 45.8333Z"
        fill="#00095E" />
    <path
        d="M12.5 37.1146C12.5 36.0385 13.3042 35.1292 14.375 35.0104C22.4115 34.1208 27.625 34.201 35.6437 35.0302C36.0442 35.0723 36.4237 35.23 36.7359 35.4842C37.0482 35.7384 37.2797 36.078 37.4021 36.4616C37.5245 36.8452 37.5325 37.2561 37.4252 37.6442C37.3179 38.0322 37.1 38.3807 36.7979 38.6469C27.3344 46.8958 21.926 46.7823 13.1667 38.6552C12.7396 38.2594 12.5 37.6969 12.5 37.1156V37.1146Z"
        fill="#00095E" />
    <path fill-rule="evenodd" clip-rule="evenodd"
        d="M35.5361 36.0656C27.5809 35.2427 22.4424 35.1656 14.4882 36.0458C14.2264 36.0763 13.985 36.2024 13.8103 36.3997C13.6356 36.5971 13.5398 36.852 13.5413 37.1156C13.5413 37.4135 13.6653 37.6958 13.8747 37.8917C18.2163 41.9187 21.5059 43.7385 24.7216 43.75C27.9486 43.7615 31.4153 41.9562 36.1132 37.8625C36.2625 37.7297 36.3699 37.5563 36.4225 37.3636C36.4751 37.1708 36.4705 36.9669 36.4094 36.7767C36.3483 36.5865 36.2332 36.4181 36.0782 36.292C35.9231 36.166 35.7348 36.0877 35.5361 36.0667V36.0656ZM14.2601 33.975C22.3809 33.076 27.6705 33.1573 35.7518 33.9937C36.3542 34.0566 36.9252 34.2938 37.3948 34.6762C37.8645 35.0586 38.2125 35.5696 38.3963 36.1468C38.58 36.7239 38.5914 37.3421 38.4292 37.9256C38.267 38.5092 37.9382 39.0327 37.483 39.4323C32.7174 43.5865 28.7486 45.849 24.7153 45.8333C20.6705 45.8187 16.8768 43.5177 12.4591 39.4187C12.1428 39.1241 11.8906 38.7675 11.7184 38.371C11.5461 37.9746 11.4575 37.5468 11.458 37.1146C11.4565 36.3379 11.7416 35.5881 12.2586 35.0085C12.7756 34.429 13.4883 34.0606 14.2601 33.974V33.975Z"
        fill="#00095E" />
    <path
        d="M33.3332 20.8333C33.3332 23.0435 32.4552 25.1631 30.8924 26.7259C29.3296 28.2887 27.21 29.1667 24.9998 29.1667C22.7897 29.1667 20.6701 28.2887 19.1073 26.7259C17.5445 25.1631 16.6665 23.0435 16.6665 20.8333C16.6665 18.6232 17.5445 16.5036 19.1073 14.9408C20.6701 13.378 22.7897 12.5 24.9998 12.5C27.21 12.5 29.3296 13.378 30.8924 14.9408C32.4552 16.5036 33.3332 18.6232 33.3332 20.8333Z"
        fill="#00095E" />
    <path fill-rule="evenodd" clip-rule="evenodd"
        d="M24.9998 27.0833C26.6574 27.0833 28.2472 26.4249 29.4193 25.2528C30.5914 24.0806 31.2498 22.4909 31.2498 20.8333C31.2498 19.1757 30.5914 17.586 29.4193 16.4139C28.2472 15.2418 26.6574 14.5833 24.9998 14.5833C23.3422 14.5833 21.7525 15.2418 20.5804 16.4139C19.4083 17.586 18.7498 19.1757 18.7498 20.8333C18.7498 22.4909 19.4083 24.0806 20.5804 25.2528C21.7525 26.4249 23.3422 27.0833 24.9998 27.0833ZM24.9998 29.1667C27.21 29.1667 29.3296 28.2887 30.8924 26.7259C32.4552 25.1631 33.3332 23.0435 33.3332 20.8333C33.3332 18.6232 32.4552 16.5036 30.8924 14.9408C29.3296 13.378 27.21 12.5 24.9998 12.5C22.7897 12.5 20.6701 13.378 19.1073 14.9408C17.5445 16.5036 16.6665 18.6232 16.6665 20.8333C16.6665 23.0435 17.5445 25.1631 19.1073 26.7259C20.6701 28.2887 22.7897 29.1667 24.9998 29.1667Z"
        fill="#00095E" />
</svg>