<svg width="50" height="50" viewBox="0 0 50 50" fill="none" xmlns="http://www.w3.org/2000/svg">
    <path
        d="M25 28.125C26.7259 28.125 28.125 26.7259 28.125 25C28.125 23.2741 26.7259 21.875 25 21.875C23.2741 21.875 21.875 23.2741 21.875 25C21.875 26.7259 23.2741 28.125 25 28.125Z"
        fill="#00095E" />
    <path
        d="M45.6039 21.5L43.9581 16.25C43.7804 15.6432 43.4823 15.0785 43.0816 14.5894C42.6809 14.1003 42.1858 13.697 41.6259 13.4034C41.0659 13.1098 40.4526 12.932 39.8224 12.8806C39.1923 12.8292 38.5582 12.9052 37.9581 13.1042L37.2498 13.3333C36.6949 13.5168 36.1038 13.5633 35.527 13.469C34.9503 13.3747 34.4048 13.1423 33.9373 12.7917L33.7081 12.625C33.2518 12.2758 32.884 11.8242 32.6343 11.3067C32.3846 10.7892 32.26 10.2203 32.2706 9.64582V9.06249C32.2807 7.75421 31.7712 6.49539 30.8539 5.56249C30.4176 5.12177 29.8986 4.77158 29.3265 4.53204C28.7545 4.2925 28.1408 4.16833 27.5206 4.16666H22.2081C20.9335 4.18313 19.7169 4.70247 18.8234 5.61162C17.9299 6.52077 17.4317 7.7461 17.4373 9.02082V9.52082C17.4353 10.1256 17.2976 10.7221 17.0344 11.2666C16.7712 11.811 16.3891 12.2895 15.9164 12.6667L15.6456 12.875C15.1234 13.27 14.5126 13.5316 13.8663 13.6369C13.2201 13.7422 12.5579 13.688 11.9373 13.4792C11.3673 13.2819 10.7632 13.2024 10.1616 13.2453C9.56004 13.2883 8.97342 13.4529 8.43727 13.7292C7.87905 14.0062 7.38382 14.3952 6.98239 14.8719C6.58097 15.3486 6.28195 15.9028 6.10393 16.5L4.3956 21.9167C3.99944 23.1379 4.10103 24.4661 4.67833 25.6129C5.25562 26.7597 6.262 27.6324 7.47893 28.0417H7.81227C8.37364 28.252 8.87749 28.5918 9.28291 29.0334C9.68833 29.475 9.98389 30.0061 10.1456 30.5833L10.2706 30.9167C10.5028 31.5544 10.5805 32.2382 10.4972 32.9118C10.4139 33.5854 10.172 34.2297 9.79143 34.7917C9.02105 35.8408 8.6961 37.1517 8.88728 38.4392C9.07845 39.7267 9.77028 40.8866 10.8123 41.6667L15.1248 44.9375C15.9413 45.5312 16.9278 45.8454 17.9373 45.8333C18.2075 45.8598 18.4796 45.8598 18.7498 45.8333C19.375 45.7123 19.969 45.4652 20.4955 45.107C21.0221 44.7488 21.4701 44.2871 21.8123 43.75L22.2914 43.0625C22.6276 42.5803 23.0723 42.184 23.5898 41.9053C24.1073 41.6266 24.6831 41.4735 25.2706 41.4583C25.8863 41.4432 26.4959 41.5842 27.0424 41.8684C27.5888 42.1526 28.0544 42.5705 28.3956 43.0833L28.6456 43.4375C29.0008 43.9661 29.4605 44.4164 29.9963 44.7607C30.5321 45.105 31.1327 45.336 31.7611 45.4395C32.3896 45.5429 33.0325 45.5166 33.6504 45.3622C34.2683 45.2078 34.848 44.9285 35.3539 44.5417L39.5831 41.375C40.583 40.5984 41.248 39.4687 41.4417 38.2175C41.6354 36.9663 41.3431 35.6884 40.6248 34.6458L40.0831 33.8542C39.7574 33.3509 39.5441 32.7832 39.4578 32.19C39.3715 31.5968 39.4142 30.9919 39.5831 30.4167C39.7552 29.8009 40.0747 29.2363 40.5139 28.7717C40.9531 28.3071 41.4988 27.9564 42.1039 27.75L42.5206 27.6042C43.7262 27.1858 44.722 26.315 45.2974 25.1759C45.8727 24.0368 45.9827 22.7187 45.6039 21.5ZM24.9998 32.2917C23.5576 32.2917 22.1478 31.864 20.9487 31.0628C19.7496 30.2616 18.815 29.1228 18.2631 27.7904C17.7113 26.458 17.5669 24.9919 17.8482 23.5775C18.1296 22.163 18.824 20.8638 19.8438 19.844C20.8635 18.8242 22.1628 18.1298 23.5772 17.8484C24.9917 17.5671 26.4578 17.7115 27.7902 18.2634C29.1225 18.8153 30.2613 19.7498 31.0626 20.949C31.8638 22.1481 32.2914 23.5578 32.2914 25C32.2914 26.9339 31.5232 28.7885 30.1558 30.156C28.7883 31.5234 26.9336 32.2917 24.9998 32.2917Z"
        fill="#00095E" />
</svg>