<svg width="19" height="18" viewBox="0 0 19 18" fill="none" xmlns="http://www.w3.org/2000/svg">
    <path
        d="M12.3658 9.85359C12.3658 10.6428 12.0523 11.3996 11.4943 11.9577C10.9362 12.5157 10.1794 12.8292 9.39021 12.8292C8.60103 12.8292 7.84417 12.5157 7.28613 11.9577C6.7281 11.3996 6.4146 10.6428 6.4146 9.85359C6.4146 9.06441 6.7281 8.30755 7.28613 7.74951C7.84417 7.19148 8.60103 6.87798 9.39021 6.87798C10.1794 6.87798 10.9362 7.19148 11.4943 7.74951C12.0523 8.30755 12.3658 9.06441 12.3658 9.85359ZM5.33743 2.16164C5.52265 1.79063 5.80757 1.47856 6.16025 1.26044C6.51292 1.04232 6.91939 0.926772 7.33406 0.926758H11.4464C11.861 0.926772 12.2675 1.04232 12.6202 1.26044C12.9728 1.47856 13.2578 1.79063 13.443 2.16164L14.3134 3.90237H15.3414C16.1306 3.90237 16.8875 4.21587 17.4455 4.7739C18.0035 5.33194 18.317 6.0888 18.317 6.87798V14.317C18.317 15.1062 18.0035 15.863 17.4455 16.4211C16.8875 16.9791 16.1306 17.2926 15.3414 17.2926H3.43899C2.64981 17.2926 1.89295 16.9791 1.33491 16.4211C0.77688 15.863 0.463379 15.1062 0.463379 14.317V6.87798C0.463379 6.0888 0.77688 5.33194 1.33491 4.7739C1.89295 4.21587 2.64981 3.90237 3.43899 3.90237H4.46706L5.33743 2.16164ZM13.8536 9.85359C13.8536 8.66982 13.3834 7.53453 12.5463 6.69748C11.7093 5.86042 10.574 5.39017 9.39021 5.39017C8.20644 5.39017 7.07115 5.86042 6.2341 6.69748C5.39704 7.53453 4.92679 8.66982 4.92679 9.85359C4.92679 11.0374 5.39704 12.1726 6.2341 13.0097C7.07115 13.8468 8.20644 14.317 9.39021 14.317C10.574 14.317 11.7093 13.8468 12.5463 13.0097C13.3834 12.1726 13.8536 11.0374 13.8536 9.85359Z"
        fill="#A87DFF" />
</svg>