<svg width="34" height="34" viewBox="0 0 34 34" fill="none" xmlns="http://www.w3.org/2000/svg">
    <path
        d="M17 14.25C17.3647 14.25 17.7144 14.3949 17.9723 14.6527C18.2301 14.9106 18.375 15.2603 18.375 15.625V23.875C18.375 24.2397 18.2301 24.5894 17.9723 24.8473C17.7144 25.1051 17.3647 25.25 17 25.25C16.6353 25.25 16.2856 25.1051 16.0277 24.8473C15.7699 24.5894 15.625 24.2397 15.625 23.875V15.625C15.625 15.2603 15.7699 14.9106 16.0277 14.6527C16.2856 14.3949 16.6353 14.25 17 14.25ZM17 12.1875C17.2709 12.1875 17.5391 12.1342 17.7893 12.0305C18.0395 11.9269 18.2669 11.7749 18.4584 11.5834C18.6499 11.3919 18.8018 11.1645 18.9055 10.9143C19.0092 10.6641 19.0625 10.3959 19.0625 10.125C19.0625 9.85415 19.0092 9.58595 18.9055 9.33572C18.8018 9.08548 18.6499 8.85811 18.4584 8.66659C18.2669 8.47507 18.0395 8.32315 17.7893 8.2195C17.5391 8.11585 17.2709 8.0625 17 8.0625C16.4537 8.0625 15.9298 8.27951 15.5435 8.66579C15.1573 9.05206 14.9402 9.57597 14.9402 10.1223C14.9402 10.6685 15.1573 11.1924 15.5435 11.5787C15.9298 11.965 16.4537 12.182 17 12.182V12.1875ZM0.5 17C0.5 14.8332 0.926785 12.6876 1.75599 10.6857C2.58519 8.68385 3.80057 6.8649 5.33274 5.33274C6.8649 3.80057 8.68385 2.58519 10.6857 1.75599C12.6876 0.926785 14.8332 0.5 17 0.5C19.1668 0.5 21.3124 0.926785 23.3143 1.75599C25.3161 2.58519 27.1351 3.80057 28.6673 5.33274C30.1994 6.8649 31.4148 8.68385 32.244 10.6857C33.0732 12.6876 33.5 14.8332 33.5 17C33.5 21.3761 31.7616 25.5729 28.6673 28.6673C25.5729 31.7616 21.3761 33.5 17 33.5C12.6239 33.5 8.42709 31.7616 5.33274 28.6673C2.23839 25.5729 0.5 21.3761 0.5 17ZM17 3.25C13.3533 3.25 9.85591 4.69866 7.27728 7.27728C4.69866 9.85591 3.25 13.3533 3.25 17C3.25 20.6467 4.69866 24.1441 7.27728 26.7227C9.85591 29.3013 13.3533 30.75 17 30.75C20.6467 30.75 24.1441 29.3013 26.7227 26.7227C29.3013 24.1441 30.75 20.6467 30.75 17C30.75 13.3533 29.3013 9.85591 26.7227 7.27728C24.1441 4.69866 20.6467 3.25 17 3.25Z"
        fill="#A87DFF" />
</svg>