<svg width="33" height="30" viewBox="0 0 33 30" fill="none" xmlns="http://www.w3.org/2000/svg">
    <path
        d="M23.75 1.28125C23.75 0.991169 23.8718 0.71297 24.0886 0.507852C24.3055 0.302734 24.5996 0.1875 24.9062 0.1875C25.2129 0.1875 25.507 0.302734 25.7238 0.507852C25.9406 0.71297 26.0625 0.991169 26.0625 1.28125V6.75H31.8437C32.1504 6.75 32.4445 6.86523 32.6613 7.07035C32.8781 7.27547 33 7.55367 33 7.84375C33 8.13383 32.8781 8.41203 32.6613 8.61715C32.4445 8.82227 32.1504 8.9375 31.8437 8.9375H26.0625V14.4062C26.0625 14.6963 25.9406 14.9745 25.7238 15.1796C25.507 15.3848 25.2129 15.5 24.9062 15.5C24.5996 15.5 24.3055 15.3848 24.0886 15.1796C23.8718 14.9745 23.75 14.6963 23.75 14.4062V8.9375H17.9687C17.6621 8.9375 17.368 8.82227 17.1511 8.61715C16.9343 8.41203 16.8125 8.13383 16.8125 7.84375C16.8125 7.55367 16.9343 7.27547 17.1511 7.07035C17.368 6.86523 17.6621 6.75 17.9687 6.75H23.75V1.28125ZM9.31071 13.3628L11.792 11.2103C12.4711 10.6206 12.9484 9.85238 13.1627 9.00424C13.377 8.1561 13.3184 7.26674 12.9945 6.45031L11.9377 3.775C11.542 2.77623 10.7587 1.95773 9.74724 1.48627C8.73582 1.0148 7.57243 0.925838 6.49408 1.2375C2.52583 2.38594 -0.524355 5.875 0.41452 10.0181C1.20713 13.4619 2.56979 16.7656 4.45214 19.8072C6.69527 23.4538 9.25752 26.1509 11.4544 28.0431C14.7705 30.9 19.5111 30.1847 22.5613 27.4963C23.3796 26.775 23.8762 25.7856 23.9496 24.7299C24.0231 23.6742 23.668 22.6318 22.9568 21.8153L21.0143 19.5841C20.4281 18.9097 19.6421 18.4167 18.7573 18.1683C17.8725 17.92 16.9294 17.9278 16.0493 18.1906L12.8396 19.1466C12.0106 18.3382 11.2842 17.4411 10.6751 16.4734C10.0869 15.4935 9.62864 14.4488 9.31071 13.3628Z"
        fill="#A87DFF" />
</svg>