<svg width="37" height="37" viewBox="0 0 37 37" fill="none" xmlns="http://www.w3.org/2000/svg">
    <path fill-rule="evenodd" clip-rule="evenodd"
        d="M28.8445 27.0794C30.0731 25.8507 30.7633 24.1842 30.7633 22.4467C30.7633 20.7091 30.0731 19.0427 28.8445 17.814L18.762 7.73146C18.4728 7.44239 18.3102 7.05024 18.31 6.64128C18.3099 6.23232 18.4722 5.84006 18.7613 5.55078C19.0503 5.2615 19.4425 5.0989 19.8515 5.09875C20.2604 5.09861 20.6527 5.26093 20.942 5.55L31.0245 15.6325C32.8317 17.4393 33.8471 19.8901 33.8474 22.4456C33.8477 25.0011 32.8328 27.4521 31.026 29.2593C29.2192 31.0665 26.7684 32.082 24.2129 32.0823C21.6574 32.0826 19.2064 31.0677 17.3992 29.2608L5.13679 16.9969C3.83554 15.6954 3.10459 13.9304 3.10474 12.09C3.10488 10.2496 3.83611 8.48465 5.13756 7.1834C6.43901 5.88215 8.20407 5.1512 10.0445 5.15135C11.8848 5.15149 13.6498 5.88272 14.951 7.18417L27.2119 19.445C27.9883 20.2446 28.4188 21.3176 28.4105 22.4321C28.4023 23.5465 27.9558 24.613 27.1676 25.4009C26.3795 26.1889 25.3129 26.6351 24.1985 26.6431C23.084 26.6511 22.0111 26.2202 21.2117 25.4437L10.0408 14.2712C9.75155 13.9821 9.58895 13.59 9.58881 13.181C9.58867 12.7721 9.75098 12.3798 10.0401 12.0905C10.3291 11.8012 10.7213 11.6386 11.1302 11.6385C11.5392 11.6384 11.9315 11.8007 12.2207 12.0898L23.3932 23.2622C23.6103 23.4795 23.9049 23.6017 24.2121 23.6018C24.5192 23.602 24.8139 23.4801 25.0312 23.263C25.2485 23.0459 25.3707 22.7513 25.3709 22.4441C25.371 22.1369 25.2491 21.8423 25.032 21.625L12.7711 9.36409C12.4132 9.00595 11.9882 8.72181 11.5205 8.52791C11.0527 8.33401 10.5514 8.23413 10.045 8.23399C9.53866 8.23385 9.03724 8.33344 8.56938 8.52707C8.10153 8.72071 7.67639 9.00461 7.31825 9.36255C6.59495 10.0854 6.18844 11.0661 6.18815 12.0887C6.18786 13.1113 6.59381 14.0921 7.31671 14.8154L19.5791 27.0778C20.8079 28.3064 22.4743 28.9966 24.2118 28.9966C25.9494 28.9966 27.6158 28.3064 28.8445 27.0778V27.0794Z"
        fill="#A87DFF" />
</svg>