<svg width="31" height="31" viewBox="0 0 31 31" fill="none" xmlns="http://www.w3.org/2000/svg">
    <path
        d="M7.40617 15.5C7.24535 15.4998 7.08625 15.5331 6.93903 15.5979C6.79182 15.6626 6.65973 15.7573 6.5512 15.876C6.44268 15.9947 6.3601 16.1347 6.30876 16.2871C6.25741 16.4395 6.23842 16.601 6.253 16.7611C6.68467 21.5002 10.1843 25.5209 15.4999 25.5209C20.8156 25.5209 24.3136 21.5002 24.7468 16.7611C24.7614 16.601 24.7424 16.4395 24.6911 16.2871C24.6397 16.1347 24.5572 15.9947 24.4486 15.876C24.3401 15.7573 24.208 15.6626 24.0608 15.5979C23.9136 15.5331 23.7545 15.4998 23.5937 15.5H7.40463H7.40617ZM15.4999 23.2084C12.0204 23.2084 9.53213 20.9267 8.76592 17.8125H22.2339C21.4693 20.9267 18.981 23.2084 15.4999 23.2084ZM20.5103 10.4896C19.8813 10.4896 19.4158 10.9321 19.3418 11.43C19.2968 11.7334 19.1331 12.0065 18.8868 12.1892C18.6405 12.372 18.3316 12.4493 18.0283 12.4044C17.7249 12.3594 17.4518 12.1957 17.2691 11.9494C17.0863 11.7031 17.0089 11.3943 17.0539 11.0909C17.3037 9.41046 18.7852 8.17712 20.5103 8.17712C22.2355 8.17712 23.717 9.41046 23.9668 11.0909C24.0117 11.3943 23.9343 11.7031 23.7516 11.9494C23.5689 12.1957 23.2958 12.3594 22.9924 12.4044C22.689 12.4493 22.3802 12.372 22.1339 12.1892C21.8875 12.0065 21.7239 11.7334 21.6789 11.43C21.6049 10.9321 21.1393 10.4896 20.5103 10.4896ZM9.32092 11.43C9.39492 10.9321 9.8605 10.4896 10.4895 10.4896C11.12 10.4896 11.5841 10.9321 11.6581 11.43C11.7031 11.7334 11.8667 12.0065 12.113 12.1892C12.3594 12.372 12.6682 12.4493 12.9716 12.4044C13.275 12.3594 13.5481 12.1957 13.7308 11.9494C13.9135 11.7031 13.9909 11.3943 13.9459 11.0909C13.6977 9.41046 12.2146 8.17712 10.4895 8.17712C8.76438 8.17712 7.28284 9.41046 7.03308 11.0909C6.98811 11.3943 7.06549 11.7031 7.24822 11.9494C7.43094 12.1957 7.70403 12.3594 8.00742 12.4044C8.3108 12.4493 8.61963 12.372 8.86596 12.1892C9.11229 12.0065 9.27594 11.7334 9.32092 11.43ZM15.4999 0.083374C6.98529 0.083374 0.083252 6.98542 0.083252 15.5C0.083252 24.0147 6.98529 30.9167 15.4999 30.9167C24.0145 30.9167 30.9166 24.0147 30.9166 15.5C30.9166 6.98542 24.0145 0.083374 15.4999 0.083374ZM2.39575 15.5C2.39575 12.0246 3.77637 8.6915 6.23387 6.234C8.69138 3.77649 12.0245 2.39587 15.4999 2.39587C18.9754 2.39587 22.3085 3.77649 24.766 6.234C27.2235 8.6915 28.6041 12.0246 28.6041 15.5C28.6041 18.9755 27.2235 22.3086 24.766 24.7661C22.3085 27.2236 18.9754 28.6042 15.4999 28.6042C12.0245 28.6042 8.69138 27.2236 6.23387 24.7661C3.77637 22.3086 2.39575 18.9755 2.39575 15.5Z"
        fill="#A87DFF" />
</svg>