<svg width="47" height="27" viewBox="0 0 47 27" fill="none" xmlns="http://www.w3.org/2000/svg">
    <path
        d="M16.3852 0C4.81918 0 0 1.56793 0 2.83307V24.1071C0 25.3434 4.81918 27 16.3852 27C27.9513 27 32.7705 25.4321 32.7705 24.1669V2.89286C32.7705 1.65664 27.9513 0 16.3852 0ZM48.9147 0.059786C48.5907 0.0727053 48.2771 0.177736 48.0106 0.362572L35.4808 8.4375C34.9988 8.80007 34.6981 9.39793 34.6981 10.0054V16.9946C34.6981 17.6021 34.9988 18.198 35.4808 18.5625L48.0106 26.6394C48.3499 26.8959 50 27.7001 50 25.0714V1.92857C50 0.410786 49.4776 0.0366431 48.9147 0.059786Z"
        fill="#A87DFF" />
</svg>