<svg width="20" height="20" viewBox="0 0 20 20" fill="none" xmlns="http://www.w3.org/2000/svg">
<mask id="path-1-inside-1_109_358" fill="white">
<path fill-rule="evenodd" clip-rule="evenodd" d="M16.943 10.8974C16.9796 10.6115 16.6102 10.4712 16.3989 10.6671C15.5068 11.4943 14.3125 12 13 12C10.2386 12 8 9.7614 8 6.99998C8 5.68751 8.50569 4.49316 9.33285 3.60112C9.5288 3.38981 9.38845 3.02039 9.10259 3.05697C5.66043 3.49748 3 6.43804 3 9.99998C3 13.866 6.13401 17 10 17C13.5619 17 16.5025 14.3396 16.943 10.8974Z"/>
</mask>
<path d="M9.33285 3.60112L8.30627 2.64921L9.33285 3.60112ZM16.3989 10.6671L17.3508 11.6937L16.3989 10.6671ZM16.943 10.8974L15.5543 10.7197L16.943 10.8974ZM15.4469 9.64055C14.8035 10.2372 13.9457 10.6 13 10.6V13.4C14.6792 13.4 16.2101 12.7514 17.3508 11.6937L15.4469 9.64055ZM13 10.6C11.0118 10.6 9.4 8.9882 9.4 6.99998H6.6C6.6 10.5346 9.46538 13.4 13 13.4V10.6ZM9.4 6.99998C9.4 6.05427 9.76281 5.19644 10.3594 4.55304L8.30627 2.64921C7.24856 3.78988 6.6 5.32076 6.6 6.99998H9.4ZM4.4 9.99998C4.4 7.15151 6.52799 4.79787 9.28031 4.44564L8.92488 1.66829C4.79286 2.19708 1.6 5.72457 1.6 9.99998H4.4ZM10 15.6C6.90721 15.6 4.4 13.0928 4.4 9.99998H1.6C1.6 14.6392 5.36081 18.4 10 18.4V15.6ZM15.5543 10.7197C15.2021 13.472 12.8485 15.6 10 15.6V18.4C14.2754 18.4 17.8029 15.2071 18.3317 11.0751L15.5543 10.7197ZM10.3594 4.55304C10.8661 4.00658 10.9237 3.2717 10.6957 2.70981C10.4549 2.11629 9.80841 1.55523 8.92488 1.66829L9.28031 4.44564C8.68264 4.52213 8.2492 4.12749 8.10108 3.76236C7.96579 3.42886 7.99551 2.98435 8.30627 2.64921L10.3594 4.55304ZM17.3508 11.6937C17.0156 12.0045 16.5711 12.0342 16.2376 11.8989C15.8725 11.7508 15.4779 11.3173 15.5543 10.7197L18.3317 11.0751C18.4448 10.1916 17.8837 9.54502 17.2902 9.30426C16.7283 9.07632 15.9934 9.13384 15.4469 9.64055L17.3508 11.6937Z" fill="black" mask="url(#path-1-inside-1_109_358)"/>
</svg>
