<svg width="20" height="20" viewBox="0 0 20 20" fill="none" xmlns="http://www.w3.org/2000/svg">
    <path fill-rule="evenodd" clip-rule="evenodd"
        d="M5.12339 7.95116C4.52316 4.95002 6.81863 2.14999 9.87921 2.14999H10.5C13.1866 2.14999 15.35 4.35883 15.35 7.02932C15.35 8.52269 14.6616 9.95114 13.4776 10.872L10.9079 12.8707C10.8714 12.8991 10.85 12.9428 10.85 12.9891V13.5C10.85 13.9694 10.4694 14.35 9.99999 14.35C9.53055 14.35 9.14999 13.9694 9.14999 13.5V12.9891C9.14999 12.4182 9.41356 11.8793 9.8642 11.5288L12.4339 9.53012C13.1986 8.93534 13.65 8.00467 13.65 7.02932C13.65 5.28153 12.2316 3.84999 10.5 3.84999H9.87921C7.89141 3.84999 6.40054 5.66857 6.79038 7.61776L6.83348 7.83329C6.92555 8.29362 6.62701 8.74142 6.16669 8.83349C5.70636 8.92555 5.25856 8.62702 5.1665 8.16669L5.12339 7.95116Z"
        fill="black" />
    <circle cx="9.99999" cy="16.7" r="0.6" stroke="black" stroke-width="1.2" />
</svg>