<svg width="20" height="18" viewBox="0 0 20 18" fill="none" xmlns="http://www.w3.org/2000/svg">
    <path
        d="M10 4.30253C10.1989 4.30253 10.3897 4.37624 10.5303 4.50744C10.671 4.63863 10.75 4.81657 10.75 5.00211V8.26682H14.25C14.4489 8.26682 14.6397 8.34053 14.7803 8.47172C14.921 8.60292 15 8.78086 15 8.9664C15 9.15194 14.921 9.32988 14.7803 9.46108C14.6397 9.59227 14.4489 9.66598 14.25 9.66598H10.75V12.9307C10.75 13.1162 10.671 13.2942 10.5303 13.4254C10.3897 13.5566 10.1989 13.6303 10 13.6303C9.80109 13.6303 9.61032 13.5566 9.46967 13.4254C9.32902 13.2942 9.25 13.1162 9.25 12.9307V9.66598H5.75C5.55109 9.66598 5.36032 9.59227 5.21967 9.46108C5.07902 9.32988 5 9.15194 5 8.9664C5 8.78086 5.07902 8.60292 5.21967 8.47172C5.36032 8.34053 5.55109 8.26682 5.75 8.26682H9.25V5.00211C9.25 4.81657 9.32902 4.63863 9.46967 4.50744C9.61032 4.37624 9.80109 4.30253 10 4.30253ZM1 3.60295C1 2.79895 1.34241 2.02787 1.9519 1.45935C2.5614 0.890832 3.38805 0.571442 4.25 0.571442H15.75C16.612 0.571442 17.4386 0.890832 18.0481 1.45935C18.6576 2.02787 19 2.79895 19 3.60295V14.3298C19 15.1339 18.6576 15.9049 18.0481 16.4734C17.4386 17.042 16.612 17.3614 15.75 17.3614H4.25C3.38805 17.3614 2.5614 17.042 1.9519 16.4734C1.34241 15.9049 1 15.1339 1 14.3298V3.60295ZM4.25 1.9706C3.78587 1.9706 3.34075 2.14258 3.01256 2.44871C2.68437 2.75483 2.5 3.17003 2.5 3.60295V14.3298C2.5 15.2309 3.284 15.9622 4.25 15.9622H15.75C16.2141 15.9622 16.6592 15.7902 16.9874 15.4841C17.3156 15.178 17.5 14.7628 17.5 14.3298V3.60295C17.5 3.17003 17.3156 2.75483 16.9874 2.44871C16.6592 2.14258 16.2141 1.9706 15.75 1.9706H4.25Z"
        fill="#787E87" stroke="#787E87" />
</svg>