<svg width="24" height="24" viewBox="0 0 24 24" fill="none" xmlns="http://www.w3.org/2000/svg">
    <path
        d="M12.0001 0.333344C10.468 0.333344 8.95091 0.635111 7.53545 1.22142C6.11998 1.80772 4.83386 2.66708 3.75051 3.75043C1.56258 5.93836 0.333421 8.90582 0.333421 12C0.323222 14.694 1.25601 17.3066 2.97009 19.385L0.636755 21.7183C0.474871 21.8824 0.365208 22.0907 0.321605 22.3171C0.278002 22.5434 0.302412 22.7775 0.391754 22.99C0.488655 23.1999 0.645743 23.3763 0.843076 23.4968C1.04041 23.6173 1.26909 23.6764 1.50009 23.6667H12.0001C15.0943 23.6667 18.0617 22.4375 20.2497 20.2496C22.4376 18.0617 23.6668 15.0942 23.6668 12C23.6668 8.90582 22.4376 5.93836 20.2497 3.75043C18.0617 1.56251 15.0943 0.333344 12.0001 0.333344ZM12.0001 21.3333H4.31175L5.39676 20.2483C5.61405 20.0298 5.73601 19.7341 5.73601 19.4258C5.73601 19.1176 5.61405 18.8219 5.39676 18.6033C3.8691 17.0774 2.91779 15.069 2.70489 12.9203C2.492 10.7716 3.03069 8.61552 4.22919 6.81945C5.42769 5.02339 7.21184 3.69843 9.27769 3.07031C11.3435 2.4422 13.5633 2.54978 15.5587 3.37474C17.5541 4.1997 19.2017 5.691 20.2209 7.59455C21.2401 9.4981 21.5678 11.6961 21.1481 13.8142C20.7284 15.9322 19.5873 17.8392 17.9192 19.2103C16.2512 20.5814 14.1593 21.3316 12.0001 21.3333Z"
        fill="#2C3241" />
</svg>