<svg width="25" height="25" viewBox="0 0 25 25" fill="none" xmlns="http://www.w3.org/2000/svg">
    <path
        d="M23.1576 5.90906L21.0172 8.0495L16.8887 4.0475L19.0924 1.84381C19.6315 1.30473 20.3626 1.00187 21.125 1.00187C21.8874 1.00187 22.6185 1.30473 23.1576 1.84381C23.6967 2.3829 23.9996 3.11406 23.9996 3.87644C23.9996 4.63882 23.6967 5.36998 23.1576 5.90906ZM19.7637 9.30156L10.9159 18.1278L5.3125 19.6875L6.84919 14.0626L15.6481 5.28662L19.7637 9.30156ZM23.1576 5.90906L21.0172 8.0495L16.8887 4.0475L19.0924 1.84381C19.6315 1.30473 20.3626 1.00187 21.125 1.00187C21.8874 1.00187 22.6185 1.30473 23.1576 1.84381C23.6967 2.3829 23.9996 3.11406 23.9996 3.87644C23.9996 4.63882 23.6967 5.36998 23.1576 5.90906ZM19.7637 9.30156L10.9159 18.1278L5.3125 19.6875L6.84775 14.0626L15.6467 5.28662L19.7637 9.30156ZM21.125 12.0055L24 9.13194V19.6875C24 20.8312 23.5456 21.9281 22.7369 22.7369C21.9281 23.5456 20.8312 24 19.6875 24H5.3125C4.16875 24 3.07185 23.5456 2.2631 22.7369C1.45435 21.9281 1 20.8312 1 19.6875L1 5.3125C1 4.16875 1.45435 3.07185 2.2631 2.2631C3.07185 1.45435 4.16875 1 5.3125 1L15.8666 1L12.9859 3.875H5.3125C4.519 3.875 3.875 4.519 3.875 5.3125V19.6875C3.875 20.0687 4.02645 20.4344 4.29603 20.704C4.56562 20.9735 4.93125 21.125 5.3125 21.125H19.6875C20.4824 21.125 21.125 20.4824 21.125 19.6875V12.0055Z"
        fill="black" stroke="white" />
</svg>