<svg width="23" height="7" viewBox="0 0 23 7" fill="none" xmlns="http://www.w3.org/2000/svg">
    <path
        d="M3.0625 6.03125C2.39117 6.03125 1.74734 5.76457 1.27264 5.28986C0.797935 4.81516 0.53125 4.17133 0.53125 3.5C0.53125 2.82867 0.797935 2.18484 1.27264 1.71014C1.74734 1.23543 2.39117 0.96875 3.0625 0.96875C3.73383 0.96875 4.37766 1.23543 4.85236 1.71014C5.32707 2.18484 5.59375 2.82867 5.59375 3.5C5.59375 4.17133 5.32707 4.81516 4.85236 5.28986C4.37766 5.76457 3.73383 6.03125 3.0625 6.03125ZM11.5 6.03125C10.8287 6.03125 10.1848 5.76457 9.71014 5.28986C9.23543 4.81516 8.96875 4.17133 8.96875 3.5C8.96875 2.82867 9.23543 2.18484 9.71014 1.71014C10.1848 1.23543 10.8287 0.96875 11.5 0.96875C12.1713 0.96875 12.8152 1.23543 13.2899 1.71014C13.7646 2.18484 14.0312 2.82867 14.0312 3.5C14.0312 4.17133 13.7646 4.81516 13.2899 5.28986C12.8152 5.76457 12.1713 6.03125 11.5 6.03125ZM19.9375 6.03125C19.2662 6.03125 18.6223 5.76457 18.1476 5.28986C17.6729 4.81516 17.4062 4.17133 17.4062 3.5C17.4062 2.82867 17.6729 2.18484 18.1476 1.71014C18.6223 1.23543 19.2662 0.96875 19.9375 0.96875C20.6088 0.96875 21.2527 1.23543 21.7274 1.71014C22.2021 2.18484 22.4688 2.82867 22.4688 3.5C22.4688 4.17133 22.2021 4.81516 21.7274 5.28986C21.2527 5.76457 20.6088 6.03125 19.9375 6.03125Z"
        fill="#2C3241" />
</svg>