<svg width="28" height="28" viewBox="0 0 28 28" fill="none" xmlns="http://www.w3.org/2000/svg">
    <path
        d="M21.7631 20.1223L25.1809 23.3087C25.3403 23.4626 25.4285 23.6688 25.4265 23.8828C25.4245 24.0968 25.3325 24.3015 25.1702 24.4528C25.008 24.6041 24.7885 24.69 24.5591 24.6918C24.3297 24.6937 24.1087 24.6114 23.9436 24.4627L20.5259 21.2747C18.2925 23.0596 15.4047 23.9682 12.4686 23.8099C9.53242 23.6516 6.77614 22.4387 4.77808 20.4256C2.78002 18.4126 1.69551 15.7559 1.75211 13.0131C1.80871 10.2703 3.00203 7.65454 5.08166 5.71471C7.16129 3.77489 9.96558 2.66179 12.9061 2.60899C15.8466 2.5562 18.6947 3.5678 20.8528 5.43154C23.011 7.29527 24.3113 9.86626 24.481 12.605C24.6508 15.3438 23.6767 18.0374 21.7631 20.1207V20.1223ZM13.1251 22.1954C15.6779 22.1954 18.126 21.2495 19.931 19.5658C21.7361 17.8821 22.7501 15.5985 22.7501 13.2175C22.7501 10.8364 21.7361 8.55278 19.931 6.86909C18.126 5.1854 15.6779 4.23951 13.1251 4.23951C10.5724 4.23951 8.12428 5.1854 6.31924 6.86909C4.5142 8.55278 3.50014 10.8364 3.50014 13.2175C3.50014 15.5985 4.5142 17.8821 6.31924 19.5658C8.12428 21.2495 10.5724 22.1954 13.1251 22.1954Z"
        fill="#90949D" />
</svg>