<svg width="16" height="15" viewBox="0 0 16 15" fill="none" xmlns="http://www.w3.org/2000/svg">
    <path
        d="M12.9906 11.4631L15.1877 13.5371C15.2902 13.6373 15.3469 13.7715 15.3456 13.9108C15.3443 14.0501 15.2852 14.1833 15.1809 14.2818C15.0766 14.3803 14.9355 14.4362 14.788 14.4374C14.6405 14.4386 14.4984 14.3851 14.3923 14.2883L12.1952 12.2132C10.7594 13.375 8.90303 13.9664 7.01551 13.8634C5.12799 13.7604 3.35609 12.9709 2.07162 11.6606C0.787156 10.3503 0.0899687 8.62105 0.126356 6.83574C0.162743 5.05044 0.929876 3.34784 2.26678 2.0852C3.60369 0.82257 5.40645 0.0980548 7.29677 0.063689C9.18709 0.0293233 11.018 0.687778 12.4054 1.90089C13.7928 3.11399 14.6287 4.78745 14.7378 6.57011C14.8469 8.35277 14.2207 10.1061 12.9906 11.4621V11.4631ZM7.43759 12.8125C9.07862 12.8125 10.6524 12.1968 11.8128 11.1009C12.9732 10.005 13.6251 8.5186 13.6251 6.96874C13.6251 5.41889 12.9732 3.93251 11.8128 2.83659C10.6524 1.74067 9.07862 1.12499 7.43759 1.12499C5.79656 1.12499 4.22275 1.74067 3.06237 2.83659C1.90199 3.93251 1.25009 5.41889 1.25009 6.96874C1.25009 8.5186 1.90199 10.005 3.06237 11.1009C4.22275 12.1968 5.79656 12.8125 7.43759 12.8125Z"
        fill="#90949D" />
</svg>