<svg width="19" height="17" viewBox="0 0 19 17" fill="none" xmlns="http://www.w3.org/2000/svg">
    <path
        d="M18.6875 3.25H15.9969C15.6687 1.74063 14.3562 0.625 12.7812 0.625C11.2063 0.625 9.89375 1.74063 9.56563 3.25H0.3125V4.5625H9.56563C9.89375 6.07188 11.2063 7.1875 12.7812 7.1875C14.3562 7.1875 15.6687 6.07188 15.9969 4.5625H18.6875V3.25ZM12.7812 5.875C11.6656 5.875 10.8125 5.02187 10.8125 3.90625C10.8125 2.79062 11.6656 1.9375 12.7812 1.9375C13.8969 1.9375 14.75 2.79062 14.75 3.90625C14.75 5.02187 13.8969 5.875 12.7812 5.875ZM0.3125 13.75H3.00312C3.33125 15.2594 4.64375 16.375 6.21875 16.375C7.79375 16.375 9.10625 15.2594 9.43437 13.75H18.6875V12.4375H9.43437C9.10625 10.9281 7.79375 9.8125 6.21875 9.8125C4.64375 9.8125 3.33125 10.9281 3.00312 12.4375H0.3125V13.75ZM6.21875 11.125C7.33437 11.125 8.1875 11.9781 8.1875 13.0938C8.1875 14.2094 7.33437 15.0625 6.21875 15.0625C5.10313 15.0625 4.25 14.2094 4.25 13.0938C4.25 11.9781 5.10313 11.125 6.21875 11.125Z"
        fill="#3F4043" />
</svg>