<svg width="24" height="24" viewBox="0 0 24 24" fill="none" xmlns="http://www.w3.org/2000/svg">
    <path
        d="M17.5 22C16.9662 22.0062 16.4382 21.8888 15.9574 21.6569C15.4765 21.4251 15.0558 21.0852 14.7282 20.6637C14.4006 20.2423 14.1749 19.7507 14.0689 19.2276C13.9629 18.7044 13.9793 18.1638 14.117 17.648L7.85697 14.07C7.3289 14.5538 6.6649 14.8636 5.9549 14.9576C5.24489 15.0515 4.52317 14.925 3.88746 14.5951C3.25175 14.2652 2.73276 13.748 2.40077 13.1134C2.06877 12.4788 1.93981 11.7575 2.03134 11.0472C2.12287 10.3369 2.43048 9.67185 2.9125 9.14215C3.39453 8.61244 4.02769 8.24367 4.72625 8.08574C5.42481 7.92782 6.15504 7.98838 6.81804 8.25923C7.48104 8.53008 8.0448 8.99813 8.43297 9.6L14.116 6.351C14.0425 6.07318 14.0035 5.78736 14 5.5C13.993 4.68823 14.266 3.89886 14.7729 3.2648C15.2799 2.63074 15.9898 2.19071 16.7832 2.01882C17.5766 1.84693 18.405 1.95366 19.1289 2.32106C19.8528 2.68845 20.428 3.29406 20.7576 4.03591C21.0873 4.77777 21.1512 5.61055 20.9387 6.39404C20.7262 7.17754 20.2502 7.86388 19.5909 8.3375C18.9316 8.81113 18.1292 9.04311 17.3189 8.99439C16.5086 8.94567 15.7398 8.61921 15.142 8.07L8.99197 11.585C8.98497 11.845 8.94897 12.102 8.88297 12.353L15.143 15.93C15.562 15.5455 16.0684 15.269 16.6185 15.1246C17.1685 14.9802 17.7455 14.9721 18.2993 15.1012C18.8531 15.2303 19.3671 15.4925 19.7966 15.8652C20.2262 16.2379 20.5583 16.7098 20.7641 17.2399C20.9699 17.77 21.0433 18.3424 20.9779 18.9073C20.9124 19.4722 20.7101 20.0126 20.3885 20.4816C20.0669 20.9506 19.6357 21.334 19.1323 21.5986C18.629 21.8632 18.0686 22.001 17.5 22ZM17.5 17C17.1021 17 16.7206 17.158 16.4393 17.4393C16.158 17.7206 16 18.1022 16 18.5C16 18.8978 16.158 19.2794 16.4393 19.5607C16.7206 19.842 17.1021 20 17.5 20C17.8978 20 18.2793 19.842 18.5606 19.5607C18.8419 19.2794 19 18.8978 19 18.5C19 18.1022 18.8419 17.7206 18.5606 17.4393C18.2793 17.158 17.8978 17 17.5 17ZM5.49997 10C5.10215 10 4.72062 10.158 4.43931 10.4393C4.15801 10.7206 3.99997 11.1022 3.99997 11.5C3.99997 11.8978 4.15801 12.2794 4.43931 12.5607C4.72062 12.842 5.10215 13 5.49997 13C5.8978 13 6.27933 12.842 6.56063 12.5607C6.84194 12.2794 6.99997 11.8978 6.99997 11.5C6.99997 11.1022 6.84194 10.7206 6.56063 10.4393C6.27933 10.158 5.8978 10 5.49997 10ZM17.5 4C17.303 4 17.1079 4.0388 16.9259 4.11418C16.744 4.18956 16.5786 4.30005 16.4393 4.43934C16.3 4.57863 16.1895 4.74398 16.1142 4.92597C16.0388 5.10796 16 5.30301 16 5.5C16 5.69698 16.0388 5.89203 16.1142 6.07402C16.1895 6.25601 16.3 6.42137 16.4393 6.56066C16.5786 6.69995 16.744 6.81043 16.9259 6.88582C17.1079 6.9612 17.303 7 17.5 7C17.8978 7 18.2793 6.84196 18.5606 6.56066C18.8419 6.27935 19 5.89782 19 5.5C19 5.10217 18.8419 4.72064 18.5606 4.43934C18.2793 4.15803 17.8978 4 17.5 4Z"
        fill="#2C3241" />
</svg>