<svg width="20" height="14" viewBox="0 0 20 14" fill="none" xmlns="http://www.w3.org/2000/svg">
    <path
        d="M19 2.44247C18.6962 2.31487 18.3588 2.27336 18.0299 2.32311C17.701 2.37286 17.395 2.51168 17.15 2.72231L15 4.58785V3.23533C15 2.49317 14.6839 1.78141 14.1213 1.25662C13.5587 0.731834 12.7956 0.437012 12 0.437012H3C2.20435 0.437012 1.44129 0.731834 0.87868 1.25662C0.316071 1.78141 0 2.49317 0 3.23533V10.6975C0 11.4397 0.316071 12.1514 0.87868 12.6762C1.44129 13.201 2.20435 13.4958 3 13.4958H12C12.7956 13.4958 13.5587 13.201 14.1213 12.6762C14.6839 12.1514 15 11.4397 15 10.6975V9.345L17.16 11.2105C17.478 11.479 17.8911 11.6285 18.32 11.6303C18.558 11.6298 18.7932 11.5821 19.01 11.4904C19.3049 11.3791 19.5576 11.1883 19.7357 10.9424C19.9139 10.6965 20.0094 10.4066 20.01 10.1099V3.82298C20.0086 3.52513 19.9116 3.2345 19.7316 2.98848C19.5516 2.74246 19.2968 2.5523 19 2.44247ZM13 10.6975C13 10.9449 12.8946 11.1822 12.7071 11.3571C12.5196 11.532 12.2652 11.6303 12 11.6303H3C2.73478 11.6303 2.48043 11.532 2.29289 11.3571C2.10536 11.1822 2 10.9449 2 10.6975V3.23533C2 2.98794 2.10536 2.75069 2.29289 2.57576C2.48043 2.40083 2.73478 2.30256 3 2.30256H12C12.2652 2.30256 12.5196 2.40083 12.7071 2.57576C12.8946 2.75069 13 2.98794 13 3.23533V10.6975ZM18 9.39163L15.19 6.96642L18 4.54121V9.39163Z"
        fill="#787E87" />
</svg>