<svg width="186" height="186" viewBox="0 0 186 186" fill="none" xmlns="http://www.w3.org/2000/svg">
    <path
        d="M20.2198 48.5615C21.6381 46.655 23.5058 44.0742 25.0016 42.2297C29.4811 37.1457 30.0623 36.4793 34.1388 32.7205C35.3478 31.7285 36.7816 30.535 38.1843 29.4113C27.8381 38.1688 26.5206 47.864 36.0143 53.8547C35.9988 53.8547 35.9988 53.8548 35.9988 53.8703C49.2746 61.8683 78.3681 60.14 101.324 49.8945C123.558 39.9745 131.766 25.7843 120.792 17.3523C111.158 15.5465 99.6728 15.3372 87.5208 16.9647L86.2576 14.88L87.3038 11.4235C94.4493 10.7802 101.238 10.9352 107.097 11.935C108.516 12.1753 110.383 12.586 111.778 12.8805C114.475 13.5392 115.94 13.9345 117.699 14.5003C119.497 15.035 121.032 15.5698 123.706 16.5618C126.325 17.5925 127.457 18.0575 129.557 19.1038C131.909 20.1769 134.194 21.3906 136.4 22.7385C153.884 33.7358 143.011 53.8005 112.158 67.549C81.3906 81.251 42.1833 83.4055 24.6141 72.54C24.6063 72.5245 24.5831 72.509 24.5366 72.4935H24.5676C14.9731 66.4175 13.9656 57.598 20.2198 48.5615ZM100.27 125.442L100.022 113.088L91.2408 103.323C62.2326 109.895 33.7203 108.485 17.8638 99.1458C17.8096 99.0838 17.6778 99.0218 17.6236 98.9597C8.64906 93.434 6.43257 86.304 7.10682 78.554C5.00657 89.8923 4.83607 93.9842 5.13832 103.687C5.51032 109.763 9.02107 115.367 16.0813 119.784L16.1356 119.846C33.0383 130.355 68.2543 132.633 100.27 125.442ZM136.888 139.585C95.9451 156.007 44.7021 156.976 22.4441 141.779C24.8478 147.653 28.1185 153.133 32.1471 158.038C52.5761 171.988 99.6108 171.097 137.175 156.023C159.162 147.211 173.034 135.485 176.677 124.496L177.7 121.187C180.126 112.801 180.583 105.819 180.97 99.603C180.529 113.096 164.633 128.441 136.888 139.585ZM46.5078 171.213C47.7943 172.438 51.8398 177.405 72.3386 182.892C77.8798 184.117 91.8298 188.046 117.599 182.334L117.754 179.986L115.715 176.793C91.8066 182.451 65.2473 180.559 46.5078 171.213ZM105.671 73.4932L127.441 89.993C127.441 89.993 132.099 93.3487 127.705 95.7048C123.326 98.0375 112.081 103.749 112.081 103.749L100.975 99.603L95.4026 102.083L105.23 110.616L105.307 123.892L111.081 121.326L114.909 110.112C114.909 110.112 126.666 105.586 131.332 103.881C136.02 102.215 135.393 107.919 135.393 107.919L133.083 135.129L140.756 131.719L153.388 95.0072C153.388 95.0072 160.084 91.7523 164.796 88.8925C169.5 86.0328 171.112 81.2897 171.112 81.2897C171.112 81.2897 166.524 79.3135 161.239 80.9023C155.953 82.4755 149.064 85.281 149.064 85.281L113.321 70.0987L105.671 73.4932ZM59.6131 21.2892L74.3923 33.0615L78.4301 32.457L70.3856 21.8938C70.3856 21.8938 68.6341 19.7083 70.9901 19.189C73.3616 18.662 79.3601 17.4375 79.3601 17.4375L83.8706 21.0413L86.9086 20.5918L83.4676 15.1202L85.2811 9.052L82.3438 9.47825L78.8641 14.0972C78.8641 14.0972 72.7571 14.6708 70.3546 14.8723C67.9366 15.0583 68.9751 12.462 68.9751 12.462L73.6096 0L69.5486 0.59675L58.8536 16.1665C58.8536 16.1665 55.2886 16.8175 52.7078 17.5538C50.1193 18.2823 48.7553 20.2818 48.7553 20.2818C48.7553 20.2818 50.6541 21.8162 53.3278 21.762C56.0248 21.7078 59.6131 21.2892 59.6131 21.2892ZM132.657 172.554L123.093 167.555L120.892 168.322L126.558 173.391C126.558 173.391 127.767 174.421 126.496 174.972C125.225 175.514 121.985 176.847 121.985 176.847L119.311 175.654L117.723 176.227L119.947 178.599L119.73 182.063L121.388 181.49L122.628 178.676C122.628 178.676 125.992 177.676 127.333 177.32C128.666 176.956 128.363 178.521 128.363 178.521L127.1 186L129.309 185.233L133.641 175.344C133.641 175.344 135.555 174.592 136.927 173.902C138.299 173.212 138.841 171.942 138.841 171.942C138.841 171.942 137.625 171.275 136.121 171.608C134.61 171.926 132.657 172.554 132.657 172.554Z"
        fill="#00095E" />
</svg>