<svg width="27" height="20" viewBox="0 0 27 20" fill="none" xmlns="http://www.w3.org/2000/svg">
    <path
        d="M24.5873 8.4525C25.1798 9.2275 25.1798 10.2738 24.5873 11.0475C22.721 13.4838 18.2435 18.5 13.016 18.5C7.78851 18.5 3.311 13.4838 1.44475 11.0475C1.15648 10.6764 1 10.2199 1 9.75C1 9.2801 1.15648 8.82358 1.44475 8.4525C3.311 6.01625 7.78851 1 13.016 1C18.2435 1 22.721 6.01625 24.5873 8.4525V8.4525Z"
        stroke="#00095E" stroke-width="2" stroke-linecap="round" stroke-linejoin="round" />
    <path
        d="M13.0161 13.5C15.0872 13.5 16.7661 11.8211 16.7661 9.75C16.7661 7.67893 15.0872 6 13.0161 6C10.945 6 9.26611 7.67893 9.26611 9.75C9.26611 11.8211 10.945 13.5 13.0161 13.5Z"
        stroke="#00095E" stroke-width="2" stroke-linecap="round" stroke-linejoin="round" />
</svg>